<svg width="380" height="197" viewBox="0 0 380 197" fill="none" xmlns="http://www.w3.org/2000/svg">
<rect width="380" height="197" fill="#F3F3F3"/>
<g clip-path="url(#clip0_2_32)">
<path d="M194.06 56.8776H194.007V73.1085H194.06C197.46 73.1085 200.721 74.4503 203.126 76.8387C205.53 79.2271 206.881 82.4665 206.881 85.8442C206.881 89.2219 205.53 92.4613 203.126 94.8497C200.721 97.2381 197.46 98.5799 194.06 98.5799H194.007V114.805H194.06C201.792 114.805 209.208 111.754 214.675 106.323C220.142 100.891 223.214 93.5251 223.214 85.8442C223.214 78.1633 220.142 70.7971 214.675 65.3659C209.208 59.9347 201.792 56.8835 194.06 56.8835V56.8776Z" fill="#212322"/>
<path d="M186.94 93.9215H186.993V77.7082H186.94C183.54 77.7082 180.279 76.3664 177.874 73.978C175.47 71.5896 174.119 68.3502 174.119 64.9725C174.119 61.5948 175.47 58.3554 177.874 55.967C180.279 53.5786 183.54 52.2368 186.94 52.2368H186.993V36H186.94C179.208 36 171.792 39.0512 166.325 44.4824C160.858 49.9136 157.786 57.2799 157.786 64.9608C157.786 72.6416 160.858 80.0079 166.325 85.4391C171.792 90.8703 179.208 93.9215 186.94 93.9215Z" fill="#212322"/>
<path d="M132.706 134.948H139.146V160.138H132.706V134.948ZM139.146 128.486C139.147 127.853 138.959 127.233 138.606 126.706C138.253 126.179 137.75 125.768 137.161 125.524C136.572 125.281 135.924 125.217 135.298 125.34C134.673 125.463 134.098 125.767 133.647 126.215C133.195 126.662 132.888 127.233 132.763 127.854C132.638 128.475 132.702 129.119 132.945 129.704C133.189 130.29 133.602 130.79 134.132 131.142C134.662 131.494 135.286 131.682 135.923 131.682C136.776 131.682 137.594 131.346 138.198 130.749C138.802 130.151 139.143 129.339 139.146 128.492V128.486Z" fill="#212322"/>
<path d="M180.642 134.784C187.939 134.784 192.907 140.223 192.907 148.177V149.587H174.711C175.119 152.66 177.602 155.227 181.76 155.227C184.036 155.227 186.727 154.322 188.265 152.812L191.103 156.924C188.673 159.139 184.817 160.296 181.021 160.296C173.563 160.296 167.94 155.309 167.94 147.508C167.969 140.476 173.191 134.784 180.642 134.784ZM174.61 145.264H186.674C186.52 142.949 184.9 139.877 180.642 139.877C176.639 139.871 174.912 142.843 174.61 145.264Z" fill="#212322"/>
<path d="M213.758 145.005C213.758 141.633 211.984 140.476 209.246 140.476C208.156 140.488 207.083 140.753 206.115 141.251C205.146 141.749 204.309 142.465 203.67 143.343V160.179H197.23V134.919H203.67V138.549C204.744 137.343 206.068 136.382 207.551 135.732C209.034 135.082 210.641 134.759 212.262 134.784C217.632 134.784 220.216 137.803 220.216 142.538V160.161H213.758V145.005Z" fill="#212322"/>
<path d="M261.735 134.784C269.033 134.784 274 140.223 274 148.177V149.587H255.804C256.206 152.66 258.69 155.227 262.847 155.227C265.248 155.226 267.569 154.37 269.387 152.812L272.226 156.924C269.795 159.139 265.94 160.296 262.137 160.296C254.686 160.296 249.062 155.309 249.062 147.508C249.062 140.476 254.284 134.784 261.735 134.784ZM255.703 145.264H267.767C267.613 142.949 265.993 139.877 261.735 139.877C257.726 139.871 256.023 142.843 255.703 145.264Z" fill="#212322"/>
<path d="M109.643 153.065C110.897 153.729 114.475 155.25 117.514 155.25C119.974 155.25 121.329 154.58 121.329 153.065C121.329 151.355 119.714 150.609 116.923 150.051C112.718 149.247 107 147.813 107 142.021C107 137.944 109.773 134.884 117.52 134.884C120.967 134.895 124.343 135.857 127.272 137.662L124.676 142.003C122.581 140.545 120.09 139.754 117.532 139.736C115.06 139.736 113.688 140.594 113.694 142.003C113.694 143.566 115.102 144.112 117.508 144.465C121.743 145.093 128.017 147.032 128.017 153.077C128.017 157.506 124.303 160.191 117.508 160.191C113.251 160.191 109.058 158.916 106.994 157.547L109.643 153.065Z" fill="#212322"/>
<path d="M146.03 153.065C147.283 153.729 150.861 155.25 153.901 155.25C156.361 155.25 157.715 154.58 157.715 153.065C157.715 151.355 156.095 150.609 153.309 150.057C149.105 149.247 143.392 147.813 143.392 142.021C143.392 137.944 146.166 134.884 153.913 134.884C157.359 134.895 160.735 135.857 163.664 137.662L161.062 142.003C158.97 140.544 156.48 139.753 153.924 139.736C151.453 139.736 150.081 140.594 150.086 142.003C150.086 143.566 151.494 144.112 153.895 144.465C158.135 145.093 164.409 147.032 164.409 153.077C164.409 157.506 160.695 160.191 153.901 160.191C149.643 160.191 145.45 158.916 143.386 157.547L146.03 153.065Z" fill="#212322"/>
<path d="M227.141 153.065C228.394 153.729 231.972 155.25 235.012 155.25C237.466 155.25 238.826 154.58 238.826 153.065C238.826 151.355 237.206 150.609 234.42 150.057C230.21 149.247 224.503 147.813 224.503 142.021C224.503 137.944 227.277 134.884 235.023 134.884C238.475 134.893 241.856 135.857 244.787 137.668L242.185 142.003C240.091 140.548 237.602 139.759 235.047 139.742C232.575 139.742 231.203 140.594 231.209 142.003C231.209 143.566 232.617 144.112 235.018 144.465C239.258 145.093 245.532 147.038 245.532 153.077C245.532 157.506 241.818 160.191 235.023 160.191C230.766 160.191 226.573 158.916 224.509 157.547L227.141 153.065Z" fill="#212322"/>
</g>
<defs>
<clipPath id="clip0_2_32">
<rect width="167" height="124.314" fill="white" transform="translate(107 36)"/>
</clipPath>
</defs>
</svg>
